<?xml version="1.0" encoding="utf-8"?>
<!-- Generator: Adobe Illustrator 16.0.0, SVG Export Plug-In . SVG Version: 6.00 Build 0)  -->
<!DOCTYPE svg PUBLIC "-//W3C//DTD SVG 1.1//EN" "http://www.w3.org/Graphics/SVG/1.1/DTD/svg11.dtd">
<svg version="1.1" id="Layer_1" xmlns="http://www.w3.org/2000/svg" xmlns:xlink="http://www.w3.org/1999/xlink" x="0px" y="0px"
	 width="87px" height="30.238px" viewBox="377.323 335.55 87 30.238" enable-background="new 377.323 335.55 87 30.238"
	 xml:space="preserve">
<g>
	<path fill="#EFF3F3" d="M388.786,343.191h1.648c0.108,0,0.195-0.09,0.195-0.192c0-0.108-0.087-0.196-0.195-0.196h-1.648
		c-0.104,0-0.193,0.088-0.193,0.196C388.593,343.102,388.682,343.191,388.786,343.191z M389.61,357.627
		c-0.472,0-0.855,0.387-0.855,0.857c0,0.473,0.384,0.856,0.855,0.856c0.473,0,0.856-0.384,0.856-0.856
		C390.468,358.014,390.083,357.627,389.61,357.627z M385.407,356.893h8.407V344.46h-8.407V356.893z M412.361,352.811
		c-0.397,0-0.758,0.131-1.083,0.396c-0.325,0.269-0.536,0.614-0.637,1.044c-0.049,0.201-0.074,0.364-0.074,0.495v1.211
		c0,0.528,0.159,0.978,0.485,1.341c0.323,0.361,0.746,0.544,1.264,0.544c0.607,0,1.084-0.233,1.423-0.702
		c0.339-0.47,0.507-1.088,0.507-1.857c0-0.706-0.157-1.29-0.478-1.749C413.42,353.055,412.951,352.811,412.361,352.811z
		 M441.844,352.709c-0.646,0-1.143,0.287-1.479,0.865c-0.293,0.476-0.437,1.057-0.437,1.742c0,0.67,0.144,1.24,0.437,1.718
		c0.347,0.577,0.834,0.862,1.466,0.862c0.615,0,1.103-0.291,1.448-0.881c0.301-0.482,0.451-1.062,0.451-1.728
		c0-0.665-0.145-1.239-0.432-1.715C442.957,352.998,442.473,352.709,441.844,352.709z M420.354,352.811
		c-0.4,0-0.758,0.131-1.083,0.396c-0.325,0.269-0.538,0.614-0.638,1.044c-0.051,0.201-0.074,0.364-0.074,0.495v1.211
		c0,0.528,0.16,0.978,0.486,1.341c0.323,0.361,0.745,0.544,1.262,0.544c0.612,0,1.085-0.233,1.425-0.702
		c0.34-0.47,0.511-1.088,0.511-1.857c0-0.706-0.161-1.29-0.479-1.749C421.412,353.055,420.942,352.811,420.354,352.811z
		 M403.653,350.208h-0.027c-0.103,0.431-0.26,1.062-0.48,1.901l-0.838,2.635h2.708l-0.851-2.635
		C404.073,351.838,403.901,351.205,403.653,350.208z M454.103,352.631c-0.529,0-0.957,0.225-1.288,0.66
		c-0.27,0.35-0.431,0.77-0.479,1.255h3.366c0.01-0.478-0.094-0.89-0.312-1.239C455.11,352.859,454.68,352.631,454.103,352.631z
		 M410.781,345.453c0.022-0.069,0.022-0.139,0.022-0.208v-0.515c-0.669-0.008-1.308,0.129-1.308,0.699
		c0,0.368,0.238,0.538,0.538,0.538C410.42,345.968,410.688,345.723,410.781,345.453z M401.962,343.1
		c-0.102-0.316-0.186-0.67-0.263-0.971h-0.016c-0.077,0.301-0.161,0.661-0.246,0.971l-0.399,1.276h1.331L401.962,343.1z
		 M460.646,335.55h-79.646c-2.027,0-3.678,1.649-3.678,3.679v22.888c0,2.024,1.649,3.672,3.678,3.672h79.646
		c2.027,0,3.677-1.647,3.677-3.672v-22.888C464.323,337.199,462.674,335.55,460.646,335.55z M455.594,342.729
		c1.216,0,1.616,1,1.616,1.823c0,0.179-0.016,0.316-0.031,0.4h-2.507c0.021,0.676,0.545,0.968,1.152,0.968
		c0.438,0,0.746-0.068,1.038-0.169l0.14,0.646c-0.324,0.14-0.771,0.239-1.31,0.239c-1.215,0-1.931-0.745-1.931-1.893
		C453.764,343.707,454.394,342.729,455.594,342.729z M440.581,342.814l0.047,0.562h0.022c0.168-0.293,0.576-0.646,1.2-0.646
		c0.653,0,1.33,0.422,1.33,1.606v2.224h-0.944v-2.115c0-0.537-0.201-0.945-0.717-0.945c-0.376,0-0.639,0.27-0.739,0.554
		c-0.031,0.077-0.046,0.192-0.046,0.302v2.207h-0.946v-2.631c0-0.432-0.015-0.793-0.029-1.115h0.822V342.814z M430.644,342.729
		c1.216,0,1.616,1,1.616,1.823c0,0.179-0.017,0.316-0.032,0.4h-2.507c0.021,0.676,0.545,0.968,1.152,0.968
		c0.438,0,0.746-0.068,1.037-0.169l0.141,0.646c-0.324,0.14-0.771,0.239-1.31,0.239c-1.215,0-1.931-0.745-1.931-1.893
		C428.813,343.707,429.444,342.729,430.644,342.729z M426.766,341.1h0.945v5.461h-0.945V341.1z M419.262,343.398
		c-0.37,0-0.754,0.115-1.008,0.276l-0.186-0.614c0.277-0.17,0.762-0.33,1.354-0.33c1.199,0,1.547,0.762,1.547,1.584v1.347
		c0,0.339,0.015,0.669,0.061,0.899h-0.854l-0.069-0.414h-0.022c-0.224,0.291-0.616,0.5-1.107,0.5c-0.754,0-1.177-0.547-1.177-1.116
		c0-0.938,0.838-1.425,2.223-1.415v-0.063C420.023,343.807,419.924,343.398,419.262,343.398z M413.667,341.252
		c0.323,0,0.523,0.225,0.531,0.516c0,0.276-0.208,0.508-0.539,0.508c-0.315,0-0.522-0.23-0.522-0.508
		C413.137,341.477,413.352,341.252,413.667,341.252z M414.136,342.814v3.746h-0.945v-3.746H414.136z M401.123,341.375h1.208
		l1.686,5.186h-1.023l-0.469-1.471h-1.639l-0.446,1.471h-0.977L401.123,341.375z M394.821,358.568c0,0.914-0.744,1.654-1.657,1.654
		h-7.105c-0.914,0-1.659-0.74-1.659-1.654v-15.789c0-0.913,0.745-1.655,1.659-1.655h7.104c0.913,0,1.657,0.742,1.657,1.655
		L394.821,358.568L394.821,358.568z M406.243,358.948l-0.941-2.96h-3.278l-0.899,2.96h-1.674l3.245-10.087h2.008l3.265,10.087
		H406.243z M406.61,346.561h-0.931l-1.394-3.746h1.023l0.606,1.899c0.107,0.33,0.186,0.632,0.255,0.938h0.022
		c0.069-0.309,0.153-0.602,0.254-0.938l0.601-1.899h0.992L406.61,346.561z M408.558,345.529c0-0.938,0.838-1.424,2.224-1.414v-0.063
		c0-0.246-0.101-0.654-0.763-0.654c-0.37,0-0.753,0.117-1.007,0.277l-0.186-0.615c0.277-0.17,0.763-0.33,1.354-0.33
		c1.2,0,1.546,0.762,1.546,1.584v1.347c0,0.339,0.015,0.67,0.062,0.899h-0.854l-0.069-0.414h-0.022
		c-0.224,0.291-0.615,0.5-1.108,0.5C408.98,346.646,408.558,346.1,408.558,345.529z M414.886,358.158
		c-0.602,0.635-1.351,0.953-2.242,0.953c-0.966,0-1.656-0.342-2.077-1.033v3.818h-1.615v-7.832c0-0.778-0.021-1.574-0.062-2.392
		h1.422l0.089,1.152h0.029c0.541-0.865,1.357-1.3,2.457-1.3c0.857,0,1.571,0.336,2.149,1.018c0.572,0.678,0.859,1.572,0.859,2.678
		C415.896,356.463,415.561,357.438,414.886,358.158z M416.568,346.561h-0.945V341.1h0.945V346.561z M422.877,358.158
		c-0.603,0.635-1.349,0.953-2.242,0.953c-0.962,0-1.654-0.342-2.075-1.033v3.818h-1.617v-7.832c0-0.778-0.021-1.574-0.06-2.392
		h1.418l0.093,1.152h0.028c0.542-0.865,1.357-1.3,2.454-1.3c0.858,0,1.575,0.336,2.148,1.018c0.576,0.678,0.861,1.572,0.861,2.678
		C423.887,356.463,423.551,357.438,422.877,358.158z M423.988,346.646c-0.485,0-0.917-0.186-1.186-0.646h-0.017l-0.046,0.561h-0.808
		c0.015-0.254,0.03-0.668,0.03-1.054V341.1h0.944v2.229h0.018c0.229-0.361,0.638-0.601,1.199-0.601c0.915,0,1.568,0.763,1.562,1.9
		C425.687,345.977,424.833,346.646,423.988,346.646z M432.123,358.213c-0.659,0.59-1.574,0.883-2.749,0.883
		c-1.087,0-1.957-0.211-2.613-0.628l0.376-1.347c0.708,0.417,1.484,0.629,2.332,0.629c0.61,0,1.084-0.139,1.424-0.411
		c0.338-0.272,0.508-0.641,0.508-1.104c0-0.403-0.141-0.748-0.418-1.028c-0.282-0.278-0.742-0.536-1.392-0.778
		c-1.765-0.656-2.648-1.619-2.648-2.886c0-0.828,0.309-1.509,0.934-2.037c0.624-0.528,1.449-0.793,2.479-0.793
		c0.917,0,1.681,0.16,2.29,0.478l-0.407,1.318c-0.567-0.309-1.216-0.466-1.936-0.466c-0.57,0-1.018,0.146-1.338,0.418
		c-0.27,0.254-0.403,0.558-0.403,0.916c0,0.396,0.154,0.728,0.463,0.99c0.271,0.237,0.76,0.495,1.466,0.774
		c0.871,0.348,1.508,0.76,1.918,1.229c0.407,0.469,0.613,1.051,0.613,1.748C433.017,356.977,432.718,357.677,432.123,358.213z
		 M437.821,352.885h-1.784v3.535c0,0.896,0.315,1.344,0.944,1.344c0.29,0,0.527-0.021,0.718-0.07l0.046,1.224
		c-0.318,0.12-0.736,0.181-1.257,0.181c-0.635,0-1.138-0.191-1.495-0.584c-0.361-0.387-0.541-1.041-0.541-1.959v-3.669h-1.062
		v-1.211h1.062v-1.332l1.585-0.479v1.812h1.783L437.821,352.885L437.821,352.885z M436.909,346.646
		c-1.054,0-1.877-0.725-1.877-1.933c0-1.229,0.809-1.983,1.938-1.983c1.114,0,1.86,0.785,1.86,1.924
		C438.832,346.031,437.863,346.646,436.909,346.646z M444.452,358.007c-0.671,0.736-1.56,1.104-2.664,1.104
		c-1.067,0-1.922-0.354-2.555-1.062c-0.633-0.707-0.948-1.604-0.948-2.679c0-1.127,0.326-2.051,0.979-2.768
		c0.655-0.722,1.533-1.076,2.64-1.076c1.072,0,1.929,0.352,2.578,1.063c0.616,0.684,0.926,1.574,0.926,2.661
		C445.407,356.373,445.09,357.287,444.452,358.007z M446.122,342.814h0.531v-0.701l0.932-0.262v0.963h0.899v0.707h-0.899v1.654
		c0,0.461,0.123,0.692,0.483,0.692c0.17,0,0.262-0.009,0.37-0.039l0.016,0.717c-0.14,0.054-0.393,0.101-0.685,0.101
		c-0.354,0-0.64-0.115-0.815-0.308c-0.209-0.216-0.301-0.562-0.301-1.055v-1.763h-0.531V342.814L446.122,342.814z M450.27,353.096
		c-0.159-0.029-0.33-0.041-0.508-0.041c-0.569,0-1.008,0.213-1.317,0.643c-0.27,0.38-0.403,0.852-0.403,1.436v3.815h-1.616v-4.986
		c0-0.833-0.015-1.597-0.042-2.288h1.404l0.062,1.393h0.044c0.169-0.478,0.437-0.861,0.809-1.149c0.358-0.262,0.749-0.39,1.169-0.39
		c0.147,0,0.284,0.01,0.4,0.027L450.27,353.096L450.27,353.096z M450.516,344.314v2.246h-0.946V341.1h0.945v2.223h0.016
		c0.115-0.178,0.276-0.323,0.469-0.424c0.192-0.107,0.415-0.17,0.653-0.17c0.639,0,1.311,0.424,1.311,1.625v2.207h-0.947v-2.107
		c0-0.538-0.199-0.954-0.723-0.954c-0.37,0-0.632,0.246-0.738,0.53C450.523,344.115,450.516,344.213,450.516,344.314z
		 M457.187,355.704h-4.851c0.02,0.717,0.254,1.264,0.704,1.642c0.408,0.342,0.937,0.512,1.585,0.512
		c0.721,0,1.372-0.114,1.961-0.348l0.256,1.124c-0.688,0.302-1.502,0.447-2.441,0.447c-1.126,0-2.012-0.329-2.655-0.993
		c-0.643-0.663-0.967-1.554-0.967-2.67c0-1.1,0.301-2.01,0.897-2.742c0.633-0.777,1.479-1.166,2.546-1.166
		c1.051,0,1.843,0.389,2.38,1.166c0.428,0.621,0.644,1.385,0.644,2.293C457.245,355.255,457.224,355.5,457.187,355.704z
		 M423.779,343.467c-0.384,0-0.738,0.277-0.838,0.693c-0.016,0.068-0.032,0.152-0.032,0.244v0.607c0,0.077,0.01,0.154,0.023,0.225
		c0.101,0.385,0.432,0.662,0.839,0.662c0.592,0,0.954-0.471,0.954-1.23C424.725,344.006,424.411,343.467,423.779,343.467z
		 M430.591,343.375c-0.584,0-0.831,0.531-0.869,0.915h1.646C431.376,343.945,431.221,343.375,430.591,343.375z M436.947,343.414
		c-0.669,0-0.938,0.654-0.938,1.277c0,0.724,0.36,1.27,0.932,1.27c0.538,0,0.915-0.523,0.915-1.285
		C437.855,344.091,437.594,343.414,436.947,343.414z M418.739,345.43c0,0.369,0.239,0.538,0.539,0.538
		c0.385,0,0.654-0.245,0.746-0.516c0.023-0.069,0.023-0.14,0.023-0.208v-0.516C419.378,344.723,418.739,344.859,418.739,345.43z
		 M455.542,343.375c-0.585,0-0.831,0.531-0.868,0.915h1.646C456.326,343.945,456.172,343.375,455.542,343.375z"/>
</g>
</svg>
