<?xml version="1.0" encoding="utf-8"?>
<!-- Generator: Adobe Illustrator 16.0.0, SVG Export Plug-In . SVG Version: 6.00 Build 0)  -->
<!DOCTYPE svg PUBLIC "-//W3C//DTD SVG 1.1//EN" "http://www.w3.org/Graphics/SVG/1.1/DTD/svg11.dtd">
<svg version="1.1" id="Layer_1" xmlns="http://www.w3.org/2000/svg" xmlns:xlink="http://www.w3.org/1999/xlink" x="0px" y="0px"
	 width="32px" height="32.035px" viewBox="3.737 22.37 32 32.035" enable-background="new 3.737 22.37 32 32.035"
	 xml:space="preserve">
<g>
	<path fill="#EFF3F3" d="M35.737,38.381c0-8.842-7.165-16.011-16-16.011c-8.836,0-16,7.169-16,16.011
		c0,8.567,6.725,15.563,15.182,15.988c0-0.4,0-6.705,0-11.972H16.55v-4.234h2.369v-2.744c0-1.964,0.932-5.028,5.027-5.028
		l3.688,0.015v4.112c0,0-2.241,0-2.677,0c-0.437,0-1.057,0.219-1.057,1.152v2.494h3.797l-0.438,4.233H23.9c0,4.45,0,9.75,0,11.441
		C30.718,52.006,35.737,45.781,35.737,38.381z"/>
	<path fill="#EFF3F3" d="M27.087,54.405h1.261c-0.424,0-0.844-0.011-1.261-0.032C27.087,54.393,27.087,54.405,27.087,54.405z"/>
</g>
</svg>
