<?xml version="1.0" encoding="utf-8"?>
<!-- Generator: Adobe Illustrator 16.0.0, SVG Export Plug-In . SVG Version: 6.00 Build 0)  -->
<!DOCTYPE svg PUBLIC "-//W3C//DTD SVG 1.1//EN" "http://www.w3.org/Graphics/SVG/1.1/DTD/svg11.dtd">
<svg version="1.1" id="Layer_1" xmlns="http://www.w3.org/2000/svg" xmlns:xlink="http://www.w3.org/1999/xlink" x="0px" y="0px"
	 width="32px" height="32px" viewBox="12.348 13.782 32 32" enable-background="new 12.348 13.782 32 32" xml:space="preserve">
<g>
	<polygon fill="#EFF3F3" points="34.952,26.28 34.952,23.715 34.952,23.332 34.568,23.333 32.005,23.342 32.013,26.289 	"/>
	<path fill="#EFF3F3" d="M28.268,33.087c1.688,0,3.062-1.373,3.062-3.061c0-0.667-0.218-1.284-0.582-1.786
		c-0.555-0.771-1.46-1.277-2.479-1.277c-1.022,0-1.926,0.506-2.482,1.277c-0.363,0.502-0.579,1.119-0.579,1.786
		C25.207,31.714,26.579,33.087,28.268,33.087z"/>
	<path fill="#EFF3F3" d="M28.348,13.782c-8.839,0-16,7.163-16,15.999c0,8.837,7.163,16.001,16,16.001c8.835,0,16-7.164,16-16.001
		C44.347,20.945,37.182,13.782,28.348,13.782z M36.966,28.24v7.122c0,1.854-1.509,3.36-3.36,3.36H22.931
		c-1.854,0-3.362-1.507-3.362-3.36V28.24v-3.55c0-1.854,1.508-3.361,3.362-3.361h10.673c1.853,0,3.36,1.507,3.36,3.361L36.966,28.24
		L36.966,28.24z"/>
	<path fill="#EFF3F3" d="M33.024,30.026c0,2.621-2.132,4.756-4.755,4.756s-4.755-2.135-4.755-4.756c0-0.633,0.125-1.234,0.349-1.786
		h-2.597v7.122c0,0.919,0.748,1.666,1.667,1.666h10.672c0.919,0,1.665-0.747,1.665-1.666V28.24h-2.599
		C32.898,28.792,33.024,29.394,33.024,30.026z"/>
</g>
</svg>
