<?xml version="1.0" encoding="utf-8"?>
<!-- Generator: Adobe Illustrator 16.0.0, SVG Export Plug-In . SVG Version: 6.00 Build 0)  -->
<!DOCTYPE svg PUBLIC "-//W3C//DTD SVG 1.1//EN" "http://www.w3.org/Graphics/SVG/1.1/DTD/svg11.dtd">
<svg version="1.1" id="Layer_1" xmlns="http://www.w3.org/2000/svg" xmlns:xlink="http://www.w3.org/1999/xlink" x="0px" y="0px"
	 width="168.875px" height="29.89px" viewBox="0.099 -0.004 168.875 29.89" enable-background="new 0.099 -0.004 168.875 29.89"
	 xml:space="preserve">
<g>
	<g>
		<path fill="#EFF3F3" d="M65.938,5.615c-1.501,0-3.221,0.543-4.302,1.602v-7.221h-1.518v21.199h1.518V8.788
			c0.991-1.208,2.53-1.752,4.242-1.722c3.032,0.121,5.434,2.175,5.464,5.377v8.752h1.561v-8.752
			C72.903,8.123,69.871,5.676,65.938,5.615z M49.006,5.031c-2.683,0-5.052,1.333-6.505,3.372V5.031H41V26.18h1.501v-8.406
			c1.453,2.037,3.822,3.371,6.505,3.371c4.422,0,8.005-3.606,8.005-8.057C57.011,8.638,53.428,5.031,49.006,5.031z M49.006,19.637
			c-3.571,0-6.467-2.895-6.505-6.479v-0.139c0.038-3.584,2.934-6.479,6.505-6.479c3.595,0,6.508,2.932,6.508,6.549
			C55.514,16.705,52.601,19.637,49.006,19.637z M84.532,5.031c-4.421,0-8.006,3.607-8.006,8.057c0,4.45,3.584,8.057,8.006,8.057
			c4.422,0,8.006-3.606,8.006-8.057C92.538,8.638,88.953,5.031,84.532,5.031z M84.532,19.637c-3.595,0-6.508-2.932-6.508-6.549
			c0-3.617,2.914-6.549,6.508-6.549c3.594,0,6.508,2.932,6.508,6.549C91.04,16.705,88.126,19.637,84.532,19.637z M97.938,16.895
			V7.227h3.207V5.811h-3.207V1.654l-1.517,0.003c0,0,0,13.079,0,13.922c0,0.843,0.017,1.604,0.017,1.604
			c0.258,2.9,2.152,4.299,4.791,4.183v-1.423C99.035,19.945,97.938,18.707,97.938,16.895z M151.58,5.031
			c-4.421,0-8.006,3.607-8.006,8.057c0,4.45,3.585,8.057,8.006,8.057s8.006-3.606,8.006-8.057
			C159.586,8.638,156.001,5.031,151.58,5.031z M151.58,19.637c-3.596,0-6.508-2.932-6.508-6.549c0-3.617,2.912-6.549,6.508-6.549
			c3.594,0,6.508,2.932,6.508,6.549C158.088,16.705,155.174,19.637,151.58,19.637z M112.053,5.031c-4.423,0-8.007,3.607-8.007,8.057
			c0,4.45,3.584,8.057,8.007,8.057c4.42,0,8.004-3.606,8.004-8.057C120.057,8.638,116.473,5.031,112.053,5.031z M112.053,19.637
			c-3.596,0-6.509-2.932-6.509-6.549c0-3.617,2.914-6.549,6.509-6.549c3.592,0,6.508,2.932,6.508,6.549
			C118.561,16.705,115.645,19.637,112.053,19.637z M132.066,5.031c-2.685,0-5.053,1.333-6.506,3.372v-8.407h-1.449v21.199h1.449
			v-3.422c1.453,2.037,3.821,3.371,6.506,3.371c4.42,0,8.006-3.606,8.006-8.057C140.072,8.638,136.486,5.031,132.066,5.031z
			 M132.066,19.637c-3.572,0-6.467-2.895-6.506-6.479v-0.139c0.039-3.584,2.934-6.479,6.506-6.479c3.594,0,6.508,2.932,6.508,6.549
			C138.574,16.705,135.66,19.637,132.066,19.637z M165.684,16.895V7.227h3.209V5.811h-3.209V1.654l-1.516,0.003
			c0,0,0,13.079,0,13.922c0,0.843,0.016,1.604,0.016,1.604c0.258,2.9,2.154,4.299,4.791,4.183v-1.423
			C166.781,19.945,165.684,18.707,165.684,16.895z"/>
	</g>
</g>
<path fill="#EFF3F3" d="M15.042,29.886c-2.467,0-4.788-0.608-6.838-1.667v-8.35c1.528,2.136,4.02,3.527,6.836,3.527
	c4.648,0,8.414-3.787,8.414-8.458c0-4.671-3.766-8.459-8.414-8.459c-2.816,0-5.308,1.391-6.836,3.527V6.479H6.626v20.809
	c-3.94-2.692-6.527-7.214-6.527-12.345C0.099,6.69,6.79,0,15.042,0c8.253,0,14.943,6.69,14.943,14.943
	C29.985,23.195,23.295,29.886,15.042,29.886z M15.04,8.062c3.779,0,6.842,3.078,6.842,6.876c0,3.798-3.063,6.876-6.842,6.876
	c-3.777,0-6.84-3.078-6.84-6.876C8.2,11.14,11.263,8.062,15.04,8.062z"/>
</svg>
