<?xml version="1.0" encoding="utf-8"?>
<!-- Generator: Adobe Illustrator 16.0.0, SVG Export Plug-In . SVG Version: 6.00 Build 0)  -->
<!DOCTYPE svg PUBLIC "-//W3C//DTD SVG 1.1//EN" "http://www.w3.org/Graphics/SVG/1.1/DTD/svg11.dtd">
<svg version="1.1" id="Layer_1" xmlns="http://www.w3.org/2000/svg" xmlns:xlink="http://www.w3.org/1999/xlink" x="0px" y="0px"
	 width="32px" height="32px" viewBox="12.348 13.781 32 32" enable-background="new 12.348 13.781 32 32" xml:space="preserve">
<path fill="#EFF3F3" d="M28.348,13.781c-8.839,0-16,7.165-16,16.001s7.163,15.999,16,15.999c8.836,0,16-7.163,16-15.999
	S37.184,13.781,28.348,13.781z M36.407,26.555c0.01,0.173,0.013,0.347,0.013,0.521c0,5.329-4.056,11.472-11.472,11.472
	c-2.277,0-4.397-0.667-6.181-1.811c0.314,0.036,0.636,0.056,0.961,0.056c1.89,0,3.628-0.645,5.008-1.726
	c-1.764-0.033-3.253-1.2-3.766-2.802c0.245,0.049,0.497,0.07,0.758,0.07c0.368,0,0.724-0.047,1.062-0.141
	c-1.845-0.369-3.234-2.001-3.234-3.953c0-0.017,0-0.034,0.001-0.052c0.543,0.303,1.165,0.482,1.825,0.505
	c-1.083-0.725-1.794-1.957-1.794-3.357c0-0.738,0.199-1.432,0.545-2.026c1.99,2.438,4.96,4.046,8.313,4.213
	c-0.068-0.294-0.104-0.604-0.104-0.919c0-2.227,1.806-4.032,4.032-4.032c1.16,0,2.208,0.49,2.943,1.273
	c0.919-0.182,1.781-0.518,2.561-0.979c-0.303,0.942-0.939,1.732-1.772,2.23c0.815-0.098,1.594-0.313,2.315-0.636
	C37.881,25.277,37.195,25.987,36.407,26.555z"/>
</svg>
